<?xml version="1.0" encoding="iso-8859-1"?>
<!-- Uploaded to: SVGRepo, www.svgrepo.com, Transformed by: SVGRepo Tools -->
<svg fill="#000000" version="1.1" id="Capa_1" xmlns="http://www.w3.org/2000/svg" xmlns:xlink="http://www.w3.org/1999/xlink" 
	 viewBox="0 0 53 53" xml:space="preserve">
<g>
	<g>
		<path d="M42.501,0H26.5H10.499C7.743,0,5.5,2.248,5.5,5.01v39.98c0,2.762,2.243,5.01,4.999,5.01H10.5v3h2v-3h14h14v3h2v-3h0.001
			c2.756,0,4.999-2.248,4.999-5.01V5.01C47.5,2.248,45.257,0,42.501,0z M10.5,48L10.5,48c-1.655,0-3-1.35-3-3.01V5.01
			C7.5,3.35,8.845,2,10.499,2H25.5v46h-13H10.5z M45.5,44.99c0,1.66-1.345,3.01-2.999,3.01H42.5h-2h-13V2h15.001
			C44.155,2,45.5,3.35,45.5,5.01V44.99z"/>
		<rect x="21.5" y="21" width="2" height="7"/>
		<rect x="29.5" y="21" width="2" height="7"/>
	</g>
</g>
<g>
</g>
<g>
</g>
<g>
</g>
<g>
</g>
<g>
</g>
<g>
</g>
<g>
</g>
<g>
</g>
<g>
</g>
<g>
</g>
<g>
</g>
<g>
</g>
<g>
</g>
<g>
</g>
<g>
</g>
</svg>
